<?xml version="1.0" standalone="no"?>
<!DOCTYPE svg PUBLIC "-//W3C//DTD SVG 20010904//EN"
 "http://www.w3.org/TR/2001/REC-SVG-20010904/DTD/svg10.dtd">
<svg version="1.0" xmlns="http://www.w3.org/2000/svg"
 width="2048.000000pt" height="2048.000000pt" viewBox="0 0 2048.000000 2048.000000"
 preserveAspectRatio="xMidYMid meet">
<metadata>
Created by potrace 1.14, written by Peter Selinger 2001-2017
</metadata>
<g transform="translate(0.000000,2048.000000) scale(0.100000,-0.100000)"
fill="#000000" stroke="none">
<path d="M10019 20476 c-2 -2 -42 -7 -89 -10 -452 -37 -896 -168 -1325 -390
-541 -279 -1032 -725 -1368 -1241 -36 -55 -74 -116 -85 -135 -11 -19 -35 -62
-54 -95 -69 -122 -167 -332 -212 -455 -15 -41 -33 -88 -40 -105 -13 -29 -84
-258 -91 -293 -2 -9 -11 -48 -20 -87 -9 -38 -19 -81 -21 -95 -3 -14 -9 -47
-14 -75 -14 -72 -39 -257 -48 -350 -9 -105 -9 -519 1 -615 4 -41 10 -95 12
-120 13 -119 57 -347 96 -495 65 -240 120 -390 233 -626 121 -254 309 -550
462 -729 161 -188 345 -374 479 -483 114 -93 183 -144 315 -232 158 -105 187
-122 345 -206 152 -80 488 -218 585 -240 19 -4 60 -15 90 -24 51 -15 118 -32
215 -55 42 -10 57 -13 165 -30 36 -6 75 -13 88 -15 13 -2 51 -7 85 -10 185
-20 144 -22 -348 -24 -643 -2 -830 -9 -1015 -36 -14 -2 -50 -7 -80 -10 -30 -4
-120 -18 -200 -31 -125 -21 -174 -31 -295 -60 -11 -3 -31 -7 -45 -10 -89 -18
-399 -110 -505 -149 -38 -15 -88 -32 -110 -39 -55 -18 -235 -91 -309 -125 -34
-16 -90 -41 -126 -57 -36 -16 -85 -39 -109 -51 l-45 -22 28 -11 c15 -5 33 -10
40 -10 8 0 30 -7 50 -15 20 -8 36 -13 36 -10 0 2 12 0 28 -6 15 -6 34 -12 43
-14 69 -14 613 -187 874 -278 315 -110 776 -293 1040 -413 28 -12 91 -40 140
-62 288 -125 778 -372 1160 -585 168 -94 170 -94 195 -77 14 9 52 32 85 50 33
18 134 73 225 123 167 91 591 306 775 392 205 96 292 135 495 222 208 89 424
176 610 244 74 28 158 59 185 69 28 11 104 38 170 60 140 48 144 49 148 50 1
0 56 18 122 40 146 50 477 151 639 194 89 24 115 34 105 42 -35 28 -344 163
-569 249 -266 102 -729 226 -970 261 -19 3 -46 7 -60 10 -55 10 -77 14 -124
18 -26 3 -56 7 -65 10 -9 3 -52 7 -96 11 -44 3 -105 8 -135 11 -112 10 -268
13 -819 13 -310 1 -562 3 -560 5 2 2 49 6 104 10 55 3 111 8 125 10 14 3 48 7
75 11 300 36 658 138 964 274 552 247 1046 638 1409 1119 56 74 192 269 192
276 0 1 23 41 51 87 204 339 385 843 442 1229 35 233 42 334 42 585 -1 288 -7
357 -62 690 -44 270 -193 695 -345 985 -114 216 -288 481 -418 634 -212 250
-405 435 -635 608 -100 75 -265 186 -340 228 -261 147 -431 225 -683 309 -103
35 -320 95 -387 107 -11 1 -32 5 -48 8 -15 3 -35 7 -45 10 -9 2 -37 7 -62 10
-25 3 -55 8 -67 10 -12 3 -53 8 -90 11 -37 4 -79 9 -93 12 -28 5 -536 14 -541
9z m24 -7233 c-7 -2 -19 -2 -25 0 -7 3 -2 5 12 5 14 0 19 -2 13 -5z"/>
<path d="M1654 12021 c-218 -59 -378 -218 -434 -433 -16 -64 -19 -114 -19
-410 l-1 -338 37 -1 c463 -6 917 -149 1308 -413 50 -33 92 -63 95 -66 3 -3 21
-18 40 -33 19 -15 53 -42 75 -60 62 -49 234 -225 296 -302 254 -313 419 -657
499 -1040 48 -229 48 -245 48 -1690 0 -751 -4 -1391 -9 -1430 -28 -222 -52
-332 -105 -498 -56 -171 -174 -434 -220 -488 -8 -8 -14 -19 -14 -22 0 -4 -20
-36 -45 -73 -25 -36 -45 -69 -45 -75 0 -5 -3 -9 -7 -9 -5 0 -19 -17 -33 -37
-115 -172 -451 -484 -632 -588 -9 -5 -52 -30 -95 -55 -146 -85 -314 -159 -468
-207 -94 -29 -218 -61 -260 -68 -16 -2 -40 -6 -51 -9 -80 -17 -241 -32 -367
-35 l-49 -1 4 -362 c4 -344 5 -366 26 -422 23 -61 75 -161 96 -181 6 -6 25
-27 41 -46 83 -95 234 -170 367 -183 29 -3 187 -8 350 -11 286 -5 412 -10 563
-20 39 -3 108 -7 155 -10 47 -3 105 -7 130 -10 55 -5 156 -14 230 -21 30 -2
71 -7 90 -9 19 -3 60 -7 90 -10 30 -3 89 -10 130 -15 41 -5 98 -12 125 -15 28
-3 57 -8 65 -10 8 -2 40 -6 70 -10 30 -3 80 -10 110 -15 30 -5 84 -14 120 -19
179 -26 486 -85 745 -142 77 -16 151 -33 164 -35 14 -3 28 -7 31 -9 4 -2 22
-7 41 -10 28 -5 136 -33 484 -125 54 -15 209 -61 271 -81 33 -11 69 -21 80
-24 10 -2 114 -35 229 -73 642 -214 1238 -460 1870 -773 591 -292 1067 -560
1683 -947 l82 -52 0 5048 0 5048 -117 66 c-337 189 -752 401 -1020 522 -54 24
-132 60 -174 79 -42 19 -159 70 -260 112 -101 42 -193 80 -204 85 -61 28 -450
174 -640 239 -49 17 -110 38 -135 47 -25 9 -87 29 -137 45 -51 16 -137 43
-190 60 -198 62 -526 153 -798 220 -281 69 -348 84 -615 138 -128 26 -173 35
-292 56 -16 3 -40 7 -55 10 -75 14 -263 45 -298 50 -22 3 -80 12 -130 20 -49
8 -112 17 -140 20 -27 3 -59 8 -70 10 -11 2 -78 11 -150 20 -71 9 -143 17
-160 20 -16 2 -61 6 -100 10 -38 4 -81 8 -95 10 -33 5 -181 19 -412 40 -29 2
-87 7 -128 10 -41 2 -111 7 -155 11 -106 7 -172 11 -345 19 -80 4 -167 9 -195
10 -27 2 -241 6 -475 9 -397 5 -430 4 -496 -13z"/>
<path d="M18107 12034 c-1 -1 -94 -5 -207 -9 -113 -4 -225 -8 -250 -10 -25 -2
-106 -6 -180 -10 -74 -4 -151 -9 -170 -10 -95 -7 -220 -16 -260 -20 -25 -2
-79 -7 -120 -10 -41 -3 -86 -8 -100 -10 -14 -2 -59 -6 -100 -10 -41 -3 -91 -8
-110 -10 -19 -3 -60 -7 -90 -10 -30 -3 -71 -7 -90 -10 -19 -2 -73 -9 -120 -15
-47 -6 -98 -12 -115 -15 -16 -2 -52 -7 -80 -10 -27 -4 -61 -8 -75 -10 -14 -2
-88 -14 -165 -25 -77 -12 -151 -23 -165 -25 -37 -6 -201 -34 -226 -39 -12 -2
-37 -7 -56 -10 -239 -38 -1065 -223 -1233 -277 -32 -10 -340 -98 -365 -104 -8
-2 -44 -13 -80 -24 -36 -11 -68 -21 -72 -21 -45 -6 -835 -285 -935 -331 -24
-10 -46 -19 -49 -19 -3 0 -20 -6 -37 -14 -18 -7 -122 -51 -232 -96 -318 -132
-556 -242 -905 -419 -186 -94 -596 -314 -663 -355 -16 -10 -17 -262 -17 -5058
l0 -5048 23 12 c12 7 24 15 27 19 3 3 30 20 60 39 30 18 120 74 200 123 252
155 528 316 885 512 215 119 670 347 925 465 74 34 163 75 198 91 34 16 64 29
67 29 4 0 82 34 150 65 181 84 822 327 1060 402 44 14 89 29 100 33 66 27 636
196 725 215 8 1 35 8 60 15 25 7 46 12 47 12 2 -1 17 4 35 9 128 37 776 176
908 194 25 4 68 11 95 16 28 6 62 12 78 14 15 2 87 13 160 24 72 11 152 23
177 26 25 3 56 8 70 10 14 2 50 7 81 10 31 3 65 7 75 9 11 2 55 7 99 11 44 4
88 9 99 11 10 2 53 6 95 9 42 4 87 8 101 10 25 4 169 15 245 20 22 1 99 6 170
10 72 4 150 9 175 10 25 2 189 6 365 9 176 4 335 9 353 11 17 3 49 8 70 11 55
8 190 76 248 126 93 79 159 184 193 307 18 65 20 105 21 412 l0 339 -52 1
c-104 2 -249 15 -334 30 -33 6 -68 12 -79 14 -11 1 -38 8 -60 14 -22 6 -51 12
-65 15 -14 2 -25 5 -25 6 0 1 -7 3 -15 5 -8 1 -58 16 -110 33 -347 112 -679
314 -939 572 -121 120 -149 152 -242 275 -207 277 -349 588 -424 929 -51 235
-50 205 -50 1721 0 1489 -1 1443 39 1645 50 247 165 555 271 725 14 22 28 47
32 55 21 44 134 203 205 288 224 267 476 467 783 620 312 156 671 246 1008
251 l59 1 -4 363 c-4 361 -4 362 -30 429 -71 187 -203 317 -387 380 -64 22
-77 23 -409 23 -189 0 -344 -1 -345 -1z"/>
<path d="M1067 9634 c-1 -1 -20 -4 -42 -8 -22 -3 -51 -8 -65 -11 -14 -3 -34
-7 -45 -9 -47 -9 -184 -60 -250 -93 -119 -60 -206 -123 -311 -228 -143 -143
-231 -284 -295 -475 -60 -179 -59 -147 -56 -1610 3 -1320 3 -1336 24 -1420
106 -428 398 -747 804 -880 131 -43 249 -59 404 -55 243 6 432 66 640 204 81
54 249 216 291 281 16 25 36 53 44 62 27 30 100 186 131 280 59 181 58 154 58
1568 0 1057 -3 1312 -14 1386 -68 443 -402 830 -825 958 -140 42 -229 54 -378
53 -61 0 -113 -1 -115 -3z"/>
<path d="M19149 9636 c-2 -2 -22 -6 -44 -10 -22 -3 -51 -8 -65 -11 -14 -3 -34
-7 -45 -9 -56 -11 -190 -63 -272 -105 -344 -181 -576 -512 -632 -901 -6 -38
-10 -613 -10 -1375 l1 -1310 23 -110 c77 -371 307 -670 643 -839 179 -90 353
-127 567 -121 72 2 141 6 155 9 14 3 34 8 45 10 232 49 412 142 583 301 166
155 290 361 341 571 11 43 23 93 28 109 11 45 14 2679 2 2750 -5 33 -11 74
-14 91 -16 106 -100 304 -183 428 -81 120 -266 299 -360 347 -15 7 -47 25 -72
40 -144 82 -334 130 -541 135 -81 2 -148 2 -150 0z"/>
</g>
</svg>
